<svg xmlns="http://www.w3.org/2000/svg" viewBox="0 0 37 53"><title>billing</title><g id="Layer_2" data-name="Layer 2"><g id="Layer_1-2" data-name="Layer 1"><path d="M36.5,0H8.5a.51.51,0,0,0-.19,0,.48.48,0,0,0-.14.09l0,0-8,8A.49.49,0,0,0,0,8.31.47.47,0,0,0,0,8.5v44a.5.5,0,0,0,.5.5h36a.5.5,0,0,0,.5-.5V.5A.5.5,0,0,0,36.5,0ZM8,1.71V8H1.71ZM36,52H1V9H8.5A.5.5,0,0,0,9,8.5V1H36Z"/><path d="M14.5,7h16a.5.5,0,0,0,0-1h-16a.5.5,0,0,0,0,1Z"/><path d="M6.5,19h14a.5.5,0,0,0,0-1H6.5a.5.5,0,0,0,0,1Z"/><path d="M30.5,18h-4a.5.5,0,0,0,0,1h4a.5.5,0,0,0,0-1Z"/><path d="M6.5,23h14a.5.5,0,0,0,0-1H6.5a.5.5,0,0,0,0,1Z"/><path d="M30.5,22h-4a.5.5,0,0,0,0,1h4a.5.5,0,0,0,0-1Z"/><path d="M6.5,27h14a.5.5,0,0,0,0-1H6.5a.5.5,0,0,0,0,1Z"/><path d="M30.5,26h-4a.5.5,0,0,0,0,1h4a.5.5,0,0,0,0-1Z"/><path d="M6.5,31h14a.5.5,0,0,0,0-1H6.5a.5.5,0,0,0,0,1Z"/><path d="M30.5,30h-4a.5.5,0,0,0,0,1h4a.5.5,0,0,0,0-1Z"/><path d="M30.5,36H6.5a.5.5,0,0,0,0,1h24a.5.5,0,0,0,0-1Z"/><path d="M20.5,42H6.5a.5.5,0,0,0,0,1h14a.5.5,0,0,0,0-1Z"/><path d="M30.5,42h-4a.5.5,0,0,0,0,1h4a.5.5,0,0,0,0-1Z"/></g></g></svg>