<svg xmlns="http://www.w3.org/2000/svg" viewBox="0 0 92.42 29.27"><title>centra</title><g id="Layer_2" data-name="Layer 2"><g id="Layer_1-2" data-name="Layer 1"><g id="Page-1"><g id="centra-white-small"><g id="Layer_1-3" data-name="Layer 1"><g id="Group"><circle id="Oval" cx="3.15" cy="26.11" r="3.15"/><g id="Shape"><path d="M13.57,20.62a4.7,4.7,0,0,0,4.27-2.79l2.73,1.76a8,8,0,0,1-7.18,4.19A8.42,8.42,0,0,1,5,15.19a8.43,8.43,0,0,1,8.39-8.58,7.94,7.94,0,0,1,7.15,4.22l-2.73,1.76A4.59,4.59,0,0,0,13.57,9.8c-3.33,0-5.15,2.46-5.15,5.43s1.82,5.4,5.15,5.4Z"/><path d="M24.57,16.07a4.46,4.46,0,0,0,4.73,4.55,4.08,4.08,0,0,0,4.06-2.46l2.94,1.4a8,8,0,0,1-7.18,4.22c-4.36,0-8.06-3.49-8.06-8.58s3.48-8.58,8.06-8.58c4.21,0,7.69,3.34,7.69,8.4l-.36,1.06ZM24.75,13h8.39a3.87,3.87,0,0,0-4-3.21A4.22,4.22,0,0,0,24.75,13Z"/><path d="M38.74,7H41.9l.36,1.4.18.18.18-.18a5,5,0,0,1,3.85-1.76c4.21,0,6.63,2.79,6.63,6.64V23.41H49.62V13.28C49.53,11,48.44,9.8,46.14,9.8a3.87,3.87,0,0,0-3.85,3.7v9.95H38.81V7Z"/><path d="M54,7h3.18V3.49L59.89,0h.67V7H64.1v3.12H60.56v8.4a1.68,1.68,0,0,0,1.79,1.76l2.09-.36v3.15l-1.94.36c-3.48,0-5.39-1.76-5.39-4.91v-8.4H53.92V7Z"/><path d="M66.55,7H69.7l.36,1.76.18.18.18-.18a4.86,4.86,0,0,1,3.85-2.09A3.08,3.08,0,0,1,76,7v3.12H73.95a3.87,3.87,0,0,0-3.85,3.7v9.58H66.61V7Z"/><path d="M92.42,23.44H89.27L88.91,22l-.18-.18-.18.18A6.6,6.6,0,0,1,84,23.81a8.32,8.32,0,0,1-8.39-8.58A8.34,8.34,0,0,1,84,6.64,6.6,6.6,0,0,1,88.55,8.4l.18.18.18-.18L89.27,7h3.15V23.44ZM84.21,9.8c-3.33,0-5.12,2.46-5.12,5.43s1.79,5.43,5.12,5.43a5.16,5.16,0,0,0,5.06-5.43A5.14,5.14,0,0,0,84.21,9.8Z"/></g></g></g></g></g></g></g></svg>