<svg xmlns="http://www.w3.org/2000/svg" viewBox="0 0 70.5 68"><title>dashboard</title><g id="Layer_2" data-name="Layer 2"><g id="Layer_1-2" data-name="Layer 1"><path d="M65.9,65H7c-2.4,0-4-2.1-4-4.6V1.5a1.5,1.5,0,0,0-3,0V60.4C0,64.5,2.9,68,7,68H65.9a1.5,1.5,0,0,0,0-3Z"/><path d="M63.5,7a7,7,0,0,0-7,7,7.1,7.1,0,0,0,2.1,5l-4.8,5.8a7.3,7.3,0,0,0-3.3-.8,7,7,0,0,0-7,7,7.6,7.6,0,0,0,.1,1.5l-5.8,1.6A7,7,0,0,0,24.5,37a7.2,7.2,0,0,0,.6,2.9l-4.3,4.6A6.6,6.6,0,0,0,16.5,43a7,7,0,0,0,0,14,7.1,7.1,0,0,0,7-7,6.6,6.6,0,0,0-.8-3.2l4.2-4.5A7.4,7.4,0,0,0,31.5,44a7.1,7.1,0,0,0,7-7l6.4-1.8A7,7,0,0,0,50.5,38a7.1,7.1,0,0,0,7-7A7.2,7.2,0,0,0,56,26.7l5.2-6.1a8.5,8.5,0,0,0,2.3.4,7,7,0,0,0,0-14Z"/></g></g></svg>