<svg xmlns="http://www.w3.org/2000/svg" viewBox="0 0 445.28 512.97"><title>login</title><g id="Layer_2" data-name="Layer 2"><g id="Layer_1-2" data-name="Layer 1"><path d="M222.64,513C99.87,513,0,413.09,0,290.33A222.38,222.38,0,0,1,78.64,120.5a23.52,23.52,0,1,1,30.69,35.65l-.26.22A175.42,175.42,0,0,0,47,290.37C47,387.16,125.81,466,222.64,466s175.61-78.78,175.61-175.61A175.2,175.2,0,0,0,334.57,155a23.52,23.52,0,1,1,29.7-36.48l.3.25a222.09,222.09,0,0,1,80.71,171.55C445.28,413.09,345.41,513,222.64,513Z"/><path d="M222.64,267.51A23.52,23.52,0,0,1,199.12,244V24.49a23.52,23.52,0,1,1,47-1.94q0,1,0,1.94V244A23.52,23.52,0,0,1,222.64,267.51Z"/></g></g></svg>