<svg xmlns="http://www.w3.org/2000/svg" viewBox="0 0 245.38 47.32"><title>logo</title><g id="Layer_2" data-name="Layer 2"><g id="Layer_1-2" data-name="Layer 1"><path d="M46.7,27.28a8.74,8.74,0,0,1-.05,1q-.05.47-.12,1l-1.25,7.07a12.86,12.86,0,0,1-4.65,7.83,12.71,12.71,0,0,1-8.39,3.22H0L2.43,33.14H31.62l.73-4H14.18a9.06,9.06,0,0,1-6.69-2.6A9,9,0,0,1,4.89,20q0-.48,0-1t.1-1H37.37a9.1,9.1,0,0,1,6.73,2.6A8.88,8.88,0,0,1,46.7,27.28Zm2.43-13.1H5.75L6.31,11a12.74,12.74,0,0,1,4.58-7.8A12.84,12.84,0,0,1,19.31,0H51.66Z"/><path d="M61.43,47.32H47.32l5-29.19H66.56Zm5.82-33.14H53.08L55.57,0H69.79Z"/><path d="M112.15,27.28a8.74,8.74,0,0,1-.05,1q-.05.47-.12,1l-1.25,7.07a12.86,12.86,0,0,1-4.65,7.83,12.71,12.71,0,0,1-8.39,3.22H65.45l2.43-14.18H97.07l.73-4H79.63a9.06,9.06,0,0,1-6.69-2.6A9,9,0,0,1,70.34,20q0-.48,0-1t.1-1h32.35a9.1,9.1,0,0,1,6.73,2.6A8.88,8.88,0,0,1,112.15,27.28Zm2.43-13.1H71.21L71.76,11a12.74,12.74,0,0,1,4.58-7.8A12.84,12.84,0,0,1,84.76,0h32.35Z"/><path d="M159.47,27.28a8.74,8.74,0,0,1-.05,1q-.05.47-.12,1l-1.25,7.07a12.86,12.86,0,0,1-4.65,7.83A12.71,12.71,0,0,1,145,47.32H112.77l2.43-14.18h29.19l.73-4H127a9.06,9.06,0,0,1-6.69-2.6,9,9,0,0,1-2.6-6.55q0-.48,0-1t.1-1h32.35a9.1,9.1,0,0,1,6.73,2.6A8.88,8.88,0,0,1,159.47,27.28Zm2.43-13.1H118.53l.55-3.15a12.74,12.74,0,0,1,4.58-7.8A12.84,12.84,0,0,1,132.08,0h32.34Z"/><path d="M202.67,29.19H177.43l-.69,4H202l-2.53,14.18H160.1l5-29.19h39.45Zm2.6-15H165.85L168.35,0H207.8Z"/><path d="M242.85,47.32H203.5l5-29.16h14.21l-2.6,15h25.24ZM223.44,14.18H209.26L211.75,0H226Z"/></g></g></svg>