<svg xmlns="http://www.w3.org/2000/svg" viewBox="0 0 94.97 94.96"><title>settings</title><g id="Layer_2" data-name="Layer 2"><g id="Layer_1-2" data-name="Layer 1"><path d="M56.69,95H38.28a1.46,1.46,0,0,1-1.46-1.46V83.6a37.89,37.89,0,0,1-7.38-3l-7,7a1.46,1.46,0,0,1-1,.43h0a1.46,1.46,0,0,1-1-.43l-13-13a1.46,1.46,0,0,1,0-2.07l6.79-6.79a37.93,37.93,0,0,1-3.26-7.55H1.46A1.46,1.46,0,0,1,0,56.69V38.28a1.46,1.46,0,0,1,1.46-1.46h9.12a38.14,38.14,0,0,1,3.17-8L7.4,22.49a1.46,1.46,0,0,1,0-2.07l13-13a1.46,1.46,0,0,1,2.07,0l6.19,6.18a38.07,38.07,0,0,1,8.15-3.44V1.46A1.46,1.46,0,0,1,38.28,0H56.69a1.46,1.46,0,0,1,1.46,1.46v8.69a38.12,38.12,0,0,1,8.15,3.43L72.49,7.4a1.5,1.5,0,0,1,2.07,0l13,13a1.46,1.46,0,0,1,0,2.07l-6.35,6.35a38.16,38.16,0,0,1,3.17,8h9.12A1.46,1.46,0,0,1,95,38.28V56.69a1.46,1.46,0,0,1-1.46,1.46H84a38.2,38.2,0,0,1-3.26,7.54l6.79,6.79a1.46,1.46,0,0,1,0,2.07l-13,13a1.46,1.46,0,0,1-2.07,0l-7-7a37.87,37.87,0,0,1-7.38,3v9.9A1.46,1.46,0,0,1,56.69,95ZM39.74,92H55.23V82.49a1.46,1.46,0,0,1,1.1-1.42,34.8,34.8,0,0,0,8.72-3.54,1.46,1.46,0,0,1,1.76.23l6.71,6.7L84.47,73.52,77.91,67a1.46,1.46,0,0,1-.22-1.79,35.25,35.25,0,0,0,3.84-8.87,1.46,1.46,0,0,1,1.41-1.07H92V39.74H83.26a1.46,1.46,0,0,1-1.42-1.12,35.24,35.24,0,0,0-3.7-9.31,1.46,1.46,0,0,1,.23-1.76l6.1-6.1-10.95-11-5.95,5.95a1.46,1.46,0,0,1-1.79.22,35.24,35.24,0,0,0-9.46-4,1.46,1.46,0,0,1-1.1-1.41V2.92H39.74v8.34a1.46,1.46,0,0,1-1.1,1.41,35.12,35.12,0,0,0-9.45,4,1.46,1.46,0,0,1-1.79-.22l-6-5.95-10.95,11,6.09,6.1a1.47,1.47,0,0,1,.23,1.76,35.27,35.27,0,0,0-3.69,9.31,1.46,1.46,0,0,1-1.42,1.12H2.92V55.23H12a1.46,1.46,0,0,1,1.41,1.07,35,35,0,0,0,3.83,8.87A1.46,1.46,0,0,1,17.06,67L10.5,73.52,21.45,84.47l6.7-6.7a1.46,1.46,0,0,1,1.76-.23,34.86,34.86,0,0,0,8.73,3.54,1.46,1.46,0,0,1,1.1,1.42Zm7.75-26.53a18,18,0,1,1,18-18A18.05,18.05,0,0,1,47.49,65.51Zm0-33.14a15.11,15.11,0,1,0,15.1,15.11A15.13,15.13,0,0,0,47.49,32.37Z"/></g></g></svg>