<svg xmlns="http://www.w3.org/2000/svg" viewBox="0 0 435.2 139.8"><title>shopify</title><g id="Layer_2" data-name="Layer 2"><g id="Layer_1-2" data-name="Layer 1"><path d="M37.4,62.8c-5.2-2.8-7.9-5.2-7.9-8.5,0-4.2,3.7-6.9,9.6-6.9a34.05,34.05,0,0,1,12.8,2.8l4.8-14.6s-4.4-3.4-17.3-3.4C21.4,32.2,8.9,42.5,8.9,57c0,8.2,5.8,14.5,13.6,19,6.3,3.6,8.5,6.1,8.5,9.9s-3.1,7-9,7c-8.7,0-16.9-4.5-16.9-4.5L0,103s7.6,5.1,20.3,5.1c18.5,0,31.8-9.1,31.8-25.5.1-8.9-6.6-15.1-14.7-19.8Zm73.8-30.7c-9.1,0-16.3,4.3-21.8,10.9l-.3-.1L97,1.5H76.4l-20,105.3H77l6.9-36c2.7-13.6,9.7-22,16.3-22,4.6,0,6.4,3.1,6.4,7.6a46.79,46.79,0,0,1-.9,9.1l-7.8,41.2h20.6l8.1-42.6a77.24,77.24,0,0,0,1.5-13.4c-.1-11.6-6.2-18.6-16.9-18.6Zm63.4,0c-24.8,0-41.2,22.4-41.2,47.3,0,16,9.9,28.8,28.4,28.8,24.3,0,40.8-21.8,40.8-47.3,0-14.8-8.7-28.8-28-28.8ZM164.5,92.4c-7,0-10-6-10-13.4,0-11.8,6.1-31.1,17.3-31.1,7.3,0,9.7,6.3,9.7,12.4C181.5,73,175.4,92.4,164.5,92.4Zm90.8-60.3c-13.9,0-21.8,12.2-21.8,12.2h-.3l1.2-11H216.2c-.9,7.5-2.5,18.8-4.2,27.3L197.7,136h20.5l5.7-30.5h.4s4.2,2.7,12.1,2.7c24.2,0,40-24.8,40-49.9.1-13.8-6.1-26.2-21.1-26.2ZM235.6,92.7a12.84,12.84,0,0,1-8.5-3l3.4-19.3c2.4-12.8,9.1-21.4,16.3-21.4,6.3,0,8.2,5.8,8.2,11.3C255,73.7,247.1,92.7,235.6,92.7ZM305.9,2.5a11.72,11.72,0,0,0-11.8,11.9c0,6.1,3.9,10.3,9.7,10.3h.3c6.4,0,11.9-4.3,12.1-11.9,0-6-4-10.3-10.3-10.3ZM277.1,106.7h20.6l14-73H291m73.1-.1H349.8l.7-3.4c1.2-7,5.4-13.3,12.2-13.3a22.42,22.42,0,0,1,6.6,1l4-16.1S369.7,0,362.1,0c-7.3,0-14.6,2.1-20.2,6.9-7,6-10.3,14.6-11.9,23.3l-.6,3.4h-9.6l-3,15.5h9.6l-10.9,57.6h20.7l10.9-57.6h14.2l2.8-15.5Zm49.6.1S400.8,66.2,395,83.9h-.3c-.4-5.7-5.1-50.2-5.1-50.2H367.9l12.4,67a4.71,4.71,0,0,1-.4,3.4,35.56,35.56,0,0,1-11.2,12.4,46.45,46.45,0,0,1-11.6,5.8l5.7,17.5c4.2-.9,12.8-4.3,20.2-11.2,9.4-8.8,18.1-22.4,27-40.9l25.2-54H413.7Z"/></g></g></svg>