<svg xmlns="http://www.w3.org/2000/svg" viewBox="0 0 49 45"><title>webhook</title><g id="Layer_2" data-name="Layer 2"><g id="Layer_1-2" data-name="Layer 1"><path d="M40.5,0A8.5,8.5,0,0,0,32,8H17a8.52,8.52,0,1,0-4.7,8.11l7.59,13.28a8.5,8.5,0,1,0,9.28,0l7.59-13.28A8.5,8.5,0,1,0,40.5,0ZM1,8.5A7.5,7.5,0,1,1,8.5,16,7.51,7.51,0,0,1,1,8.5Zm31,28a7.51,7.51,0,1,1-4-6.61.37.37,0,0,0,.29.17A7.5,7.5,0,0,1,32,36.5Zm-3.73-7.61a8.4,8.4,0,0,0-7.54,0L13.14,15.61A8.49,8.49,0,0,0,17,9H32a8.5,8.5,0,0,0,3.83,6.61ZM40.5,16A7.5,7.5,0,1,1,48,8.5,7.51,7.51,0,0,1,40.5,16Z"/></g></g></svg>