<svg xmlns="http://www.w3.org/2000/svg" xmlns:xlink="http://www.w3.org/1999/xlink"><symbol viewBox="0 0 37 53" id="billing" xmlns="http://www.w3.org/2000/svg"><g data-name="Layer 2"><g data-name="Layer 1"><path d="M36.5 0h-28a.51.51 0 0 0-.19 0 .48.48 0 0 0-.14.09l-8 8a.49.49 0 0 0-.17.22.47.47 0 0 0 0 .19v44a.5.5 0 0 0 .5.5h36a.5.5 0 0 0 .5-.5V.5a.5.5 0 0 0-.5-.5zM8 1.71V8H1.71zM36 52H1V9h7.5a.5.5 0 0 0 .5-.5V1h27z"/><path d="M14.5 7h16a.5.5 0 0 0 0-1h-16a.5.5 0 0 0 0 1zM6.5 19h14a.5.5 0 0 0 0-1h-14a.5.5 0 0 0 0 1zM30.5 18h-4a.5.5 0 0 0 0 1h4a.5.5 0 0 0 0-1zM6.5 23h14a.5.5 0 0 0 0-1h-14a.5.5 0 0 0 0 1zM30.5 22h-4a.5.5 0 0 0 0 1h4a.5.5 0 0 0 0-1zM6.5 27h14a.5.5 0 0 0 0-1h-14a.5.5 0 0 0 0 1zM30.5 26h-4a.5.5 0 0 0 0 1h4a.5.5 0 0 0 0-1zM6.5 31h14a.5.5 0 0 0 0-1h-14a.5.5 0 0 0 0 1zM30.5 30h-4a.5.5 0 0 0 0 1h4a.5.5 0 0 0 0-1zM30.5 36h-24a.5.5 0 0 0 0 1h24a.5.5 0 0 0 0-1zM20.5 42h-14a.5.5 0 0 0 0 1h14a.5.5 0 0 0 0-1zM30.5 42h-4a.5.5 0 0 0 0 1h4a.5.5 0 0 0 0-1z"/></g></g></symbol><symbol viewBox="0 0 92.42 29.27" id="centra" xmlns="http://www.w3.org/2000/svg"><g data-name="Layer 2"><g data-name="Layer 1"><circle cx="3.15" cy="26.11" r="3.15"/><path d="M13.57 20.62a4.7 4.7 0 0 0 4.27-2.79l2.73 1.76a8 8 0 0 1-7.18 4.19A8.42 8.42 0 0 1 5 15.19a8.43 8.43 0 0 1 8.39-8.58 7.94 7.94 0 0 1 7.15 4.22l-2.73 1.76a4.59 4.59 0 0 0-4.24-2.79c-3.33 0-5.15 2.46-5.15 5.43s1.82 5.4 5.15 5.4zM24.57 16.07a4.46 4.46 0 0 0 4.73 4.55 4.08 4.08 0 0 0 4.06-2.46l2.94 1.4a8 8 0 0 1-7.18 4.22c-4.36 0-8.06-3.49-8.06-8.58s3.48-8.58 8.06-8.58c4.21 0 7.69 3.34 7.69 8.4l-.36 1.06zm.18-3.07h8.39a3.87 3.87 0 0 0-4-3.21A4.22 4.22 0 0 0 24.75 13zM38.74 7h3.16l.36 1.4.18.18.18-.18a5 5 0 0 1 3.85-1.76c4.21 0 6.63 2.79 6.63 6.64v10.13h-3.48V13.28C49.53 11 48.44 9.8 46.14 9.8a3.87 3.87 0 0 0-3.85 3.7v9.95h-3.48V7zM54 7h3.18V3.49L59.89 0h.67v7h3.54v3.12h-3.54v8.4a1.68 1.68 0 0 0 1.79 1.76l2.09-.36v3.15l-1.94.36c-3.48 0-5.39-1.76-5.39-4.91v-8.4h-3.19V7zM66.55 7h3.15l.36 1.76.18.18.18-.18a4.86 4.86 0 0 1 3.85-2.09A3.08 3.08 0 0 1 76 7v3.12h-2.05a3.87 3.87 0 0 0-3.85 3.7v9.58h-3.49V7zM92.42 23.44h-3.15L88.91 22l-.18-.18-.18.18A6.6 6.6 0 0 1 84 23.81a8.32 8.32 0 0 1-8.39-8.58A8.34 8.34 0 0 1 84 6.64a6.6 6.6 0 0 1 4.55 1.76l.18.18.18-.18.36-1.4h3.15v16.44zM84.21 9.8c-3.33 0-5.12 2.46-5.12 5.43s1.79 5.43 5.12 5.43a5.16 5.16 0 0 0 5.06-5.43 5.14 5.14 0 0 0-5.06-5.43z"/></g></g></symbol><symbol viewBox="0 0 70.5 68" id="dashboard" xmlns="http://www.w3.org/2000/svg"><g data-name="Layer 2"><g data-name="Layer 1"><path d="M65.9 65H7c-2.4 0-4-2.1-4-4.6V1.5a1.5 1.5 0 0 0-3 0v58.9C0 64.5 2.9 68 7 68h58.9a1.5 1.5 0 0 0 0-3z"/><path d="M63.5 7a7 7 0 0 0-7 7 7.1 7.1 0 0 0 2.1 5l-4.8 5.8a7.3 7.3 0 0 0-3.3-.8 7 7 0 0 0-7 7 7.6 7.6 0 0 0 .1 1.5l-5.8 1.6A7 7 0 0 0 24.5 37a7.2 7.2 0 0 0 .6 2.9l-4.3 4.6a6.6 6.6 0 0 0-4.3-1.5 7 7 0 0 0 0 14 7.1 7.1 0 0 0 7-7 6.6 6.6 0 0 0-.8-3.2l4.2-4.5a7.4 7.4 0 0 0 4.6 1.7 7.1 7.1 0 0 0 7-7l6.4-1.8a7 7 0 0 0 5.6 2.8 7.1 7.1 0 0 0 7-7 7.2 7.2 0 0 0-1.5-4.3l5.2-6.1a8.5 8.5 0 0 0 2.3.4 7 7 0 0 0 0-14z"/></g></g></symbol><symbol viewBox="0 0 90 52" id="hamburger" xmlns="http://www.w3.org/2000/svg"><g data-name="Layer 2"><path d="M88 28H2a2 2 0 0 1 0-4h86a2 2 0 0 1 0 4zm2-26a2 2 0 0 0-2-2H2a2 2 0 0 0 0 4h86a2 2 0 0 0 2-2zm0 48a2 2 0 0 0-2-2H2a2 2 0 0 0 0 4h86a2 2 0 0 0 2-2z" data-name="Layer 1"/></g></symbol><symbol viewBox="0 0 445.28 512.97" id="login" xmlns="http://www.w3.org/2000/svg"><g data-name="Layer 2"><g data-name="Layer 1"><path d="M222.64 513C99.87 513 0 413.09 0 290.33A222.38 222.38 0 0 1 78.64 120.5a23.52 23.52 0 1 1 30.69 35.65l-.26.22a175.42 175.42 0 0 0-62.07 134C47 387.16 125.81 466 222.64 466s175.61-78.78 175.61-175.61A175.2 175.2 0 0 0 334.57 155a23.52 23.52 0 1 1 29.7-36.48l.3.25a222.09 222.09 0 0 1 80.71 171.55c0 122.77-99.87 222.68-222.64 222.68z"/><path d="M222.64 267.51A23.52 23.52 0 0 1 199.12 244V24.49a23.52 23.52 0 1 1 47-1.94V244a23.52 23.52 0 0 1-23.48 23.51z"/></g></g></symbol><symbol viewBox="0 0 245.38 47.32" id="logo" xmlns="http://www.w3.org/2000/svg"><g data-name="Layer 2"><g data-name="Layer 1"><path d="M46.7 27.28a8.74 8.74 0 0 1-.05 1q-.05.47-.12 1l-1.25 7.07a12.86 12.86 0 0 1-4.65 7.83 12.71 12.71 0 0 1-8.39 3.22H0l2.43-14.26h29.19l.73-4H14.18a9.06 9.06 0 0 1-6.69-2.6A9 9 0 0 1 4.89 20v-1q0-.52.1-1h32.38a9.1 9.1 0 0 1 6.73 2.6 8.88 8.88 0 0 1 2.6 6.68zm2.43-13.1H5.75L6.31 11a12.74 12.74 0 0 1 4.58-7.8A12.84 12.84 0 0 1 19.31 0h32.35zM61.43 47.32H47.32l5-29.19h14.24zm5.82-33.14H53.08L55.57 0h14.22zM112.15 27.28a8.74 8.74 0 0 1-.05 1q-.05.47-.12 1l-1.25 7.07a12.86 12.86 0 0 1-4.65 7.83 12.71 12.71 0 0 1-8.39 3.22H65.45l2.43-14.18h29.19l.73-4H79.63a9.06 9.06 0 0 1-6.69-2.6 9 9 0 0 1-2.6-6.62v-1q0-.52.1-1h32.35a9.1 9.1 0 0 1 6.73 2.6 8.88 8.88 0 0 1 2.63 6.68zm2.43-13.1H71.21l.55-3.18a12.74 12.74 0 0 1 4.58-7.8A12.84 12.84 0 0 1 84.76 0h32.35zM159.47 27.28a8.74 8.74 0 0 1-.05 1q-.05.47-.12 1l-1.25 7.07a12.86 12.86 0 0 1-4.65 7.83 12.71 12.71 0 0 1-8.4 3.14h-32.23l2.43-14.18h29.19l.73-4H127a9.06 9.06 0 0 1-6.69-2.6 9 9 0 0 1-2.6-6.55v-1q0-.52.1-1h32.35a9.1 9.1 0 0 1 6.73 2.6 8.88 8.88 0 0 1 2.58 6.69zm2.43-13.1h-43.37l.55-3.15a12.74 12.74 0 0 1 4.58-7.8A12.84 12.84 0 0 1 132.08 0h32.34zM202.67 29.19h-25.24l-.69 4H202l-2.53 14.18H160.1l5-29.19h39.45zm2.6-15h-39.42L168.35 0h39.45zM242.85 47.32H203.5l5-29.16h14.21l-2.6 15h25.24zm-19.41-33.14h-14.18L211.75 0H226z"/></g></g></symbol><symbol viewBox="0 0 44 42.43" id="plus" xmlns="http://www.w3.org/2000/svg"><g data-name="Layer 2"><path d="M13.77 42.44h8.98l2.95-16.72h16.71L44 16.71H27.29L30.23 0h-8.98L18.3 16.71H1.59L0 25.72h16.71l-2.94 16.72z" data-name="Layer 1"/></g></symbol><symbol viewBox="0 0 94.97 94.96" id="settings" xmlns="http://www.w3.org/2000/svg"><g data-name="Layer 2"><path d="M56.69 95H38.28a1.46 1.46 0 0 1-1.46-1.46V83.6a37.89 37.89 0 0 1-7.38-3l-7 7a1.46 1.46 0 0 1-1 .43 1.46 1.46 0 0 1-1-.43l-13-13a1.46 1.46 0 0 1 0-2.07l6.79-6.79a37.93 37.93 0 0 1-3.26-7.55H1.46A1.46 1.46 0 0 1 0 56.69V38.28a1.46 1.46 0 0 1 1.46-1.46h9.12a38.14 38.14 0 0 1 3.17-8L7.4 22.49a1.46 1.46 0 0 1 0-2.07l13-13a1.46 1.46 0 0 1 2.07 0l6.19 6.18a38.07 38.07 0 0 1 8.15-3.44v-8.7A1.46 1.46 0 0 1 38.28 0h18.41a1.46 1.46 0 0 1 1.46 1.46v8.69a38.12 38.12 0 0 1 8.15 3.43l6.19-6.18a1.5 1.5 0 0 1 2.07 0l13 13a1.46 1.46 0 0 1 0 2.07l-6.35 6.35a38.16 38.16 0 0 1 3.17 8h9.12a1.46 1.46 0 0 1 1.5 1.46v18.41a1.46 1.46 0 0 1-1.46 1.46H84a38.2 38.2 0 0 1-3.26 7.54l6.79 6.79a1.46 1.46 0 0 1 0 2.07l-13 13a1.46 1.46 0 0 1-2.07 0l-7-7a37.87 37.87 0 0 1-7.38 3v9.9A1.46 1.46 0 0 1 56.69 95zm-16.95-3h15.49v-9.51a1.46 1.46 0 0 1 1.1-1.42 34.8 34.8 0 0 0 8.72-3.54 1.46 1.46 0 0 1 1.76.23l6.71 6.7 10.95-10.94L77.91 67a1.46 1.46 0 0 1-.22-1.79 35.25 35.25 0 0 0 3.84-8.87 1.46 1.46 0 0 1 1.41-1.07H92V39.74h-8.74a1.46 1.46 0 0 1-1.42-1.12 35.24 35.24 0 0 0-3.7-9.31 1.46 1.46 0 0 1 .23-1.76l6.1-6.1-10.95-11-5.95 5.95a1.46 1.46 0 0 1-1.79.22 35.24 35.24 0 0 0-9.46-4 1.46 1.46 0 0 1-1.1-1.41V2.92H39.74v8.34a1.46 1.46 0 0 1-1.1 1.41 35.12 35.12 0 0 0-9.45 4 1.46 1.46 0 0 1-1.79-.22l-6-5.95-10.95 11 6.09 6.1a1.47 1.47 0 0 1 .23 1.76 35.27 35.27 0 0 0-3.69 9.31 1.46 1.46 0 0 1-1.42 1.12H2.92v15.44H12a1.46 1.46 0 0 1 1.41 1.07 35 35 0 0 0 3.83 8.87 1.46 1.46 0 0 1-.18 1.83l-6.56 6.52 10.95 10.95 6.7-6.7a1.46 1.46 0 0 1 1.76-.23 34.86 34.86 0 0 0 8.73 3.54 1.46 1.46 0 0 1 1.1 1.42zm7.75-26.53a18 18 0 1 1 18-18 18.05 18.05 0 0 1-18 18.04zm0-33.14a15.11 15.11 0 1 0 15.1 15.11 15.13 15.13 0 0 0-15.1-15.07z" data-name="Layer 1"/></g></symbol><symbol viewBox="0 0 435.2 139.8" id="shopify" xmlns="http://www.w3.org/2000/svg"><g data-name="Layer 2"><path d="M37.4 62.8c-5.2-2.8-7.9-5.2-7.9-8.5 0-4.2 3.7-6.9 9.6-6.9a34.05 34.05 0 0 1 12.8 2.8l4.8-14.6s-4.4-3.4-17.3-3.4c-18 0-30.5 10.3-30.5 24.8 0 8.2 5.8 14.5 13.6 19 6.3 3.6 8.5 6.1 8.5 9.9s-3.1 7-9 7c-8.7 0-16.9-4.5-16.9-4.5L0 103s7.6 5.1 20.3 5.1c18.5 0 31.8-9.1 31.8-25.5.1-8.9-6.6-15.1-14.7-19.8zm73.8-30.7c-9.1 0-16.3 4.3-21.8 10.9l-.3-.1L97 1.5H76.4l-20 105.3H77l6.9-36c2.7-13.6 9.7-22 16.3-22 4.6 0 6.4 3.1 6.4 7.6a46.79 46.79 0 0 1-.9 9.1l-7.8 41.2h20.6l8.1-42.6a77.24 77.24 0 0 0 1.5-13.4c-.1-11.6-6.2-18.6-16.9-18.6zm63.4 0c-24.8 0-41.2 22.4-41.2 47.3 0 16 9.9 28.8 28.4 28.8 24.3 0 40.8-21.8 40.8-47.3 0-14.8-8.7-28.8-28-28.8zm-10.1 60.3c-7 0-10-6-10-13.4 0-11.8 6.1-31.1 17.3-31.1 7.3 0 9.7 6.3 9.7 12.4 0 12.7-6.1 32.1-17 32.1zm90.8-60.3c-13.9 0-21.8 12.2-21.8 12.2h-.3l1.2-11h-18.2c-.9 7.5-2.5 18.8-4.2 27.3L197.7 136h20.5l5.7-30.5h.4s4.2 2.7 12.1 2.7c24.2 0 40-24.8 40-49.9.1-13.8-6.1-26.2-21.1-26.2zm-19.7 60.6a12.84 12.84 0 0 1-8.5-3l3.4-19.3c2.4-12.8 9.1-21.4 16.3-21.4 6.3 0 8.2 5.8 8.2 11.3 0 13.4-7.9 32.4-19.4 32.4zm70.3-90.2a11.72 11.72 0 0 0-11.8 11.9c0 6.1 3.9 10.3 9.7 10.3h.3c6.4 0 11.9-4.3 12.1-11.9 0-6-4-10.3-10.3-10.3zm-28.8 104.2h20.6l14-73H291m73.1-.1h-14.3l.7-3.4c1.2-7 5.4-13.3 12.2-13.3a22.42 22.42 0 0 1 6.6 1l4-16.1S369.7 0 362.1 0c-7.3 0-14.6 2.1-20.2 6.9-7 6-10.3 14.6-11.9 23.3l-.6 3.4h-9.6l-3 15.5h9.6l-10.9 57.6h20.7l10.9-57.6h14.2l2.8-15.5zm49.6.1S400.8 66.2 395 83.9h-.3c-.4-5.7-5.1-50.2-5.1-50.2h-21.7l12.4 67a4.71 4.71 0 0 1-.4 3.4 35.56 35.56 0 0 1-11.2 12.4 46.45 46.45 0 0 1-11.6 5.8l5.7 17.5c4.2-.9 12.8-4.3 20.2-11.2 9.4-8.8 18.1-22.4 27-40.9l25.2-54h-21.5z" data-name="Layer 1"/></g></symbol><symbol viewBox="0 0 62.54 71" id="stock" xmlns="http://www.w3.org/2000/svg"><g data-name="Layer 2"><g data-name="Layer 1"><path d="M24.81 48.34h7.52l-7.85 4.41a1.5 1.5 0 0 0 1.44 2.63l12.85-7.21a1.5 1.5 0 0 0 0-2.61L26 38.31a1.5 1.5 0 1 0-1.51 2.59l7.85 4.42h-7.53C12.79 45.34 3 35.79 3 24.16S12.79 3 24.81 3h12.94a22.46 22.46 0 0 1 4.15.39 1.5 1.5 0 0 0 .59-2.95A25.48 25.48 0 0 0 37.75 0H24.81C11.19 0 0 10.86 0 24.16s11.19 24.18 24.81 24.18z"/><path d="M37.75 68H24.81a22.49 22.49 0 0 1-4.16-.38 1.5 1.5 0 0 0-.65 2.94 25.51 25.51 0 0 0 4.8.44h12.95c13.61 0 24.79-10.86 24.79-24.16S51.36 22.67 37.75 22.67h-12l7.85-4.4a1.5 1.5 0 1 0-1.47-2.62l-12.81 7.21a1.5 1.5 0 0 0 0 2.62l12.84 7.22a1.5 1.5 0 0 0 1.49-2.6l-7.85-4.42h12c12 0 21.79 9.54 21.79 21.17S49.77 68 37.75 68z"/></g></g></symbol><symbol viewBox="0 0 49 45" id="webhook" xmlns="http://www.w3.org/2000/svg"><g data-name="Layer 2"><path d="M40.5 0A8.5 8.5 0 0 0 32 8H17a8.52 8.52 0 1 0-4.7 8.11l7.59 13.28a8.5 8.5 0 1 0 9.28 0l7.59-13.28A8.5 8.5 0 1 0 40.5 0zM1 8.5A7.5 7.5 0 1 1 8.5 16 7.51 7.51 0 0 1 1 8.5zm31 28a7.51 7.51 0 1 1-4-6.61.37.37 0 0 0 .29.17A7.5 7.5 0 0 1 32 36.5zm-3.73-7.61a8.4 8.4 0 0 0-7.54 0l-7.59-13.28A8.49 8.49 0 0 0 17 9h15a8.5 8.5 0 0 0 3.83 6.61zM40.5 16A7.5 7.5 0 1 1 48 8.5a7.51 7.51 0 0 1-7.5 7.5z" data-name="Layer 1"/></g></symbol></svg>